<?xml version="1.0" encoding="utf-8"?>
<!-- Generator: Adobe Illustrator 16.0.0, SVG Export Plug-In . SVG Version: 6.00 Build 0)  -->
<!DOCTYPE svg PUBLIC "-//W3C//DTD SVG 1.1//EN" "http://www.w3.org/Graphics/SVG/1.1/DTD/svg11.dtd">
<svg version="1.1" id="Ebene_1" xmlns="http://www.w3.org/2000/svg" xmlns:xlink="http://www.w3.org/1999/xlink" x="0px" y="0px"
	 width="595.281px" height="499.61px" viewBox="0 181.14 595.281 499.61" enable-background="new 0 181.14 595.281 499.61"
	 xml:space="preserve">
<path d="M579.335,255.55H15.945C7.139,255.55,0,248.411,0,239.605v-42.521c0-8.806,7.139-15.944,15.945-15.944h563.391
	c8.805,0,15.945,7.139,15.945,15.944v42.521C595.281,248.411,588.14,255.55,579.335,255.55z M579.335,468.15H15.945
	C7.139,468.15,0,461.011,0,452.205v-42.52c0-8.806,7.139-15.945,15.945-15.945h563.391c8.805,0,15.945,7.14,15.945,15.945v42.52
	C595.281,461.011,588.14,468.15,579.335,468.15z M579.335,680.751H15.945C7.139,680.751,0,673.611,0,664.805v-42.521
	c0-8.805,7.139-15.944,15.945-15.944h563.391c8.805,0,15.945,7.14,15.945,15.944v42.521
	C595.281,673.611,588.14,680.751,579.335,680.751z"/>
</svg>
